<?xml version="1.0" standalone="no"?>
<!DOCTYPE svg PUBLIC "-//W3C//DTD SVG 20010904//EN"
 "http://www.w3.org/TR/2001/REC-SVG-20010904/DTD/svg10.dtd">
<svg version="1.0" xmlns="http://www.w3.org/2000/svg"
 width="200.000000pt" height="209.000000pt" viewBox="0 0 200.000000 209.000000"
 preserveAspectRatio="xMidYMid meet">
<metadata>
Created by potrace 1.13, written by Peter Selinger 2001-2015
</metadata>
<g transform="translate(0.000000,209.000000) scale(0.100000,-0.100000)"
fill="#000000" stroke="none">
<path d="M1025 1638 c-38 -16 -106 -38 -150 -48 -141 -33 -289 -82 -416 -139
-24 -11 -46 -18 -50 -15 -4 2 -24 -7 -45 -21 -20 -14 -40 -25 -45 -25 -5 0
-13 -19 -20 -42 -11 -41 -6 -136 17 -325 6 -48 5 -53 -12 -53 -40 0 -246 -124
-258 -155 -3 -9 -6 -27 -6 -40 0 -38 36 -39 118 0 47 22 72 30 72 21 0 -52 77
-133 134 -143 32 -5 38 -12 78 -90 41 -79 42 -85 24 -95 -14 -8 -15 -12 -5
-18 10 -7 10 -12 1 -23 -13 -16 -23 -129 -10 -121 4 3 5 -2 1 -11 -5 -14 -10
-11 -25 14 -20 32 -22 93 -3 135 6 13 5 17 -3 12 -23 -14 -32 -76 -17 -119 17
-51 11 -62 -9 -16 -17 37 -22 25 -7 -15 8 -21 22 -27 88 -42 43 -9 88 -24 101
-32 22 -14 65 -14 212 4 l45 5 -22 -19 c-51 -45 -179 -37 -366 22 -124 39
-165 63 -190 115 l-19 36 29 -25 c15 -14 33 -30 38 -36 16 -17 52 -34 59 -27
3 3 6 28 6 55 0 52 12 85 39 105 19 15 34 17 26 3 -3 -6 -2 -10 4 -10 5 0 12
4 16 10 8 13 -94 70 -127 70 -75 0 -123 -55 -112 -130 13 -95 58 -135 189
-170 44 -12 111 -30 150 -41 75 -20 170 -25 222 -10 18 5 50 24 72 41 l40 32
65 -12 c62 -12 66 -14 66 -39 0 -42 87 -108 128 -98 10 2 2 8 -22 15 -41 12
-86 47 -86 68 0 8 14 5 43 -9 38 -20 56 -22 205 -21 100 1 168 6 176 13 7 6
11 25 9 43 l-3 33 10 -32 c12 -37 19 -39 103 -22 59 12 108 47 106 78 0 12 -2
11 -8 -4 -14 -33 -43 -52 -91 -59 l-45 -7 22 22 c17 18 25 20 36 11 19 -16 62
17 71 53 6 24 8 24 22 10 27 -27 10 -81 -37 -115 -22 -16 -46 -31 -52 -33 -7
-2 -9 -7 -5 -11 9 -11 82 38 103 70 10 15 18 41 17 57 -1 36 -31 85 -42 67 -5
-8 -9 -7 -13 5 -5 10 -3 14 4 9 7 -4 10 -1 7 7 -4 14 -27 27 -78 47 -25 10
-24 10 43 76 66 66 96 111 36 55 -17 -16 -35 -29 -40 -29 -12 0 -12 37 0 44 5
4 17 31 26 61 10 31 22 52 28 48 6 -4 7 4 3 21 -11 44 -24 164 -32 289 -7 123
-1 140 34 97 25 -30 84 -37 133 -15 32 15 45 29 69 80 27 56 29 68 23 129 -6
65 -8 69 -44 93 -46 30 -49 40 -46 118 2 67 -16 108 -58 127 -47 21 -55 7 -55
-92 0 -62 -5 -100 -15 -120 -17 -34 -63 -51 -76 -29 -4 8 -19 29 -33 48 -14
19 -26 43 -26 53 0 13 -8 18 -30 18 -42 0 -202 66 -247 102 -51 40 -147 88
-175 87 -13 -1 -54 -15 -93 -31z m180 -13 c53 -31 91 -62 84 -69 -3 -3 -19 -6
-36 -8 -18 -1 -31 -5 -30 -8 3 -9 -44 -80 -53 -80 -5 0 -17 12 -27 26 -28 41
-64 74 -81 74 -9 0 -24 8 -34 17 -12 11 -22 13 -26 7 -4 -6 -65 -25 -137 -43
-104 -27 -306 -96 -428 -146 -34 -14 -7 21 31 40 146 71 441 161 515 157 9 0
17 6 17 14 0 8 8 14 18 14 9 1 35 9 57 20 46 22 71 19 130 -15z m607 -84 c12
-25 14 -40 6 -67 -15 -55 -2 -90 45 -122 43 -28 59 -64 38 -85 -13 -13 -15
-30 -2 -22 18 11 23 -36 6 -61 -9 -13 -13 -28 -11 -33 8 -13 -31 -59 -64 -76
-38 -20 -94 -19 -114 1 -28 27 -16 50 16 33 23 -13 88 -3 88 13 0 5 -6 8 -12
5 -48 -18 -57 -17 -87 9 -31 26 -40 57 -21 69 6 4 17 1 26 -5 17 -15 91 -7
108 11 8 9 5 10 -14 4 -61 -17 -75 -16 -110 14 -19 16 -31 33 -27 38 5 4 29 8
54 9 28 1 51 8 62 19 15 17 15 17 -4 10 -11 -5 -40 -10 -64 -11 -56 -4 -68
-15 -52 -50 8 -19 9 -30 0 -40 -8 -10 -7 -21 5 -44 22 -45 7 -77 -23 -47 -10
10 -14 8 -22 -6 -6 -10 -39 -48 -74 -84 -64 -66 -117 -96 -155 -86 -42 11 -23
49 84 163 57 61 120 140 140 174 21 35 48 72 60 84 34 29 49 85 43 158 -5 72
5 91 37 71 12 -8 28 -28 38 -46z m-779 -5 c16 -12 15 -14 -14 -20 -17 -3 -55
-6 -84 -6 -35 0 -67 -8 -101 -25 -27 -14 -65 -25 -84 -25 -20 0 -41 -5 -48
-12 -14 -14 -16 -50 -3 -63 5 -6 12 -44 15 -85 13 -184 21 -203 85 -195 35 5
241 17 309 18 23 0 41 -8 62 -28 39 -37 52 -86 41 -153 -10 -62 4 -70 16 -9 9
41 4 92 -12 131 -6 14 -5 17 4 11 15 -9 1 21 -30 65 -10 14 -27 77 -38 145
-12 66 -30 148 -40 183 -11 34 -18 62 -16 62 1 0 15 -18 30 -40 15 -22 35 -40
45 -40 9 0 31 20 48 44 41 57 73 64 144 29 29 -14 84 -36 121 -48 41 -13 73
-30 80 -42 7 -11 26 -41 44 -68 31 -45 31 -49 17 -76 -17 -34 -17 -34 -49 -13
-15 10 -25 12 -25 5 0 -6 5 -11 11 -11 5 0 -9 -20 -32 -45 -40 -42 -44 -44
-83 -39 -55 9 -74 20 -79 46 -3 13 -2 -4 1 -37 15 -145 1 -363 -30 -465 -10
-30 -12 -32 -19 -15 -7 19 -8 19 -8 -1 -1 -33 23 -48 56 -36 24 9 25 11 7 11
-12 1 -24 7 -27 14 -3 8 10 12 47 13 28 1 78 11 111 22 52 18 61 19 71 6 10
-12 13 -12 24 2 9 10 15 58 17 152 2 90 0 130 -6 117 -5 -11 -10 -73 -10 -137
-1 -90 -4 -116 -14 -113 -9 4 -12 36 -11 118 l1 112 -6 -95 -6 -95 -12 66
c-19 95 -18 99 34 151 43 44 74 64 58 38 -6 -10 8 -198 24 -322 5 -39 4 -67
-4 -85 -40 -89 -56 -137 -51 -149 6 -16 -51 -76 -142 -149 -95 -75 -108 -82
-132 -67 -11 6 -26 12 -34 12 -8 0 -18 9 -21 20 -7 22 -44 27 -62 9 -18 -18
-28 85 -28 298 0 128 -3 189 -10 182 -6 -6 -10 -108 -10 -264 0 -139 -3 -257
-8 -261 -4 -4 -45 5 -92 21 l-85 28 16 24 c27 42 9 36 -40 -13 -25 -26 -44
-49 -41 -52 2 -3 10 0 17 6 9 7 30 7 63 1 67 -12 154 -46 135 -52 -8 -3 -23
-8 -32 -11 -10 -3 -48 4 -85 16 -70 21 -110 24 -200 13 -46 -6 -59 -3 -99 20
-53 31 -113 109 -174 226 -53 104 -112 201 -117 195 -3 -3 15 -42 40 -88 25
-46 57 -114 73 -153 15 -38 40 -91 55 -116 l27 -47 -37 20 c-29 15 -40 29 -50
64 -7 25 -49 117 -92 205 -43 88 -86 185 -95 215 -15 53 -12 106 7 130 13 16
6 52 -14 67 -13 9 -18 36 -23 122 -6 99 -5 112 12 133 19 23 19 23 21 -59 2
-45 10 -123 20 -173 17 -94 17 -98 7 -181 -5 -43 -2 -55 16 -75 18 -21 20 -22
14 -5 -4 11 -9 39 -12 62 -3 35 0 46 22 68 29 29 33 40 12 32 -11 -5 -18 8
-26 51 -6 31 -16 73 -21 92 -5 19 -8 51 -8 70 1 32 2 33 9 10 4 -14 8 -42 9
-63 1 -22 5 -36 11 -32 6 4 7 -1 3 -11 -5 -14 -1 -16 28 -10 19 4 59 11 89 15
30 5 69 14 85 21 17 7 46 16 65 19 41 7 51 37 27 75 -9 12 -18 45 -22 72 -4
27 -13 67 -22 90 -8 23 -14 47 -13 55 4 28 0 39 -15 39 -46 0 4 22 163 72 193
61 208 64 235 44z m7 -41 c-14 -17 -5 -35 17 -35 11 0 14 6 9 25 -4 16 -2 25
5 25 8 0 10 -14 6 -42 -4 -26 0 -55 10 -80 11 -27 14 -56 10 -95 -4 -38 -1
-65 8 -83 12 -23 12 -27 0 -27 -8 0 -12 4 -9 9 3 4 -2 5 -10 2 -19 -7 -21 -30
-3 -38 6 -3 0 -3 -14 0 -15 3 -40 -1 -57 -10 -17 -9 -41 -16 -54 -15 -20 0
-19 2 7 11 48 17 65 37 65 77 -1 48 -27 80 -72 87 -30 5 -41 2 -62 -19 -33
-33 -33 -47 0 -47 27 0 30 -24 3 -26 -8 0 -18 -2 -22 -2 -5 -1 0 -18 12 -37
26 -45 6 -48 -37 -4 -41 42 -50 94 -24 151 25 56 43 70 100 75 88 8 138 -46
129 -140 -3 -33 -1 -45 6 -38 6 6 12 34 15 64 3 40 -1 64 -18 99 -27 57 -50
80 -50 50 0 -12 -5 -24 -11 -28 -7 -4 -10 4 -7 25 2 20 -3 35 -12 41 -28 18
-36 11 -33 -27 l3 -38 -15 35 -15 35 5 -33 c6 -39 -7 -35 -25 8 -12 30 -30 36
-38 12 -2 -7 2 -10 10 -7 9 4 19 -4 27 -21 10 -23 10 -26 -4 -21 -8 4 -15 1
-15 -5 0 -6 -11 -1 -25 12 -13 12 -22 28 -18 33 3 6 -5 2 -19 -9 -68 -51 -95
-143 -65 -217 14 -33 47 -68 47 -49 0 6 -5 14 -10 17 -6 4 -8 11 -5 16 4 5 -1
9 -10 9 -11 0 -15 5 -12 14 3 8 1 17 -6 20 -8 3 -6 5 3 5 8 0 22 -4 30 -9 13
-9 13 -10 0 -10 -12 -1 -11 -3 3 -11 9 -6 15 -14 12 -20 -4 -5 -1 -9 5 -9 6 0
8 -4 5 -10 -3 -5 0 -10 7 -11 7 0 4 -4 -7 -9 -18 -7 -17 -9 14 -23 l34 -15
-52 -7 c-59 -8 -75 2 -66 41 3 12 -2 39 -11 60 -11 27 -14 53 -10 86 5 37 3
56 -11 78 -13 23 -15 32 -5 42 9 9 15 9 25 -1 6 -7 8 -11 2 -9 -5 2 -11 -1
-13 -7 -2 -5 2 -11 8 -13 6 -2 14 4 16 15 7 24 123 77 149 67 14 -6 16 -4 10
6 -6 10 1 12 36 8 24 -3 53 -1 64 3 35 13 49 11 35 -6z m-460 -95 c31 20 56
12 58 -19 1 -16 8 -44 16 -62 8 -19 17 -60 21 -91 4 -32 13 -63 21 -69 8 -6
14 -22 14 -35 0 -20 -5 -24 -30 -24 -17 0 -43 -6 -58 -14 -15 -7 -45 -16 -67
-19 l-40 -6 46 17 c60 22 75 36 89 78 11 32 10 37 -11 55 -33 28 -62 33 -97
15 -46 -24 -56 -70 -12 -59 14 4 20 0 20 -12 0 -12 -6 -16 -20 -12 -22 6 -25
-5 -10 -34 18 -34 -9 -22 -30 14 -55 90 4 198 97 177 43 -10 49 -16 61 -60
l10 -35 1 30 c1 43 -9 76 -22 68 -6 -3 -7 -1 -3 5 11 17 -22 59 -55 71 -16 5
-29 16 -29 23 0 10 2 10 8 1 5 -8 13 -9 22 -3z m-250 -514 c0 -34 5 -77 11
-95 6 -18 9 -35 5 -38 -3 -4 -27 0 -54 8 -59 19 -69 50 -23 73 16 9 33 21 37
28 4 6 -41 -14 -100 -46 -60 -32 -117 -56 -129 -54 -31 4 -33 39 -3 67 33 31
205 120 234 121 21 0 22 -4 22 -64z m1190 -10 c0 -8 5 -16 11 -18 6 -2 14 -22
18 -45 8 -39 6 -43 -18 -52 -32 -13 -140 -41 -158 -41 -22 0 -14 26 12 40 14
7 25 22 25 32 0 10 7 21 15 24 8 4 15 16 15 28 0 15 3 17 9 8 6 -10 10 -9 14
7 7 28 27 27 28 -1 0 -22 1 -22 8 -3 5 11 7 23 4 28 -2 4 1 7 6 7 6 0 11 -6
11 -14z"/>
<path d="M760 1083 c-125 -32 -158 -44 -163 -61 -3 -9 -8 -26 -13 -36 -5 -15
-4 -17 6 -11 9 5 11 4 6 -4 -4 -6 -11 -9 -16 -6 -9 6 -55 -53 -47 -61 3 -3 41
2 85 11 64 13 91 14 139 6 43 -8 68 -8 91 0 36 12 37 16 21 56 -6 15 -14 48
-17 72 -8 51 -15 54 -92 34z"/>
<path d="M1084 951 c17 -18 15 -20 -37 -39 -148 -56 -172 -58 -360 -36 -42 5
-58 1 -122 -30 -82 -41 -87 -42 -79 -21 8 21 -16 19 -32 -2 -15 -20 -19 -77
-5 -69 13 8 49 -51 135 -226 105 -211 154 -257 249 -228 115 34 192 137 232
310 33 142 65 263 70 269 4 3 10 -1 15 -9 17 -27 22 -2 6 29 -20 37 -55 71
-74 71 -12 0 -12 -3 2 -19z m-82 -104 c-8 -9 -4 -32 14 -82 38 -109 39 -149
11 -233 -34 -97 -48 -117 -103 -141 -56 -25 -121 -27 -154 -5 -24 16 -24 16
-9 0 34 -37 85 -37 174 -1 12 5 8 -2 -12 -18 -98 -84 -177 -72 -241 36 -46 76
-61 140 -72 292 -10 148 -7 155 62 155 31 0 38 -4 38 -20 0 -11 -4 -20 -10
-20 -27 0 3 -208 41 -282 24 -47 71 -78 119 -78 46 0 111 38 129 75 19 40 28
165 11 165 -10 0 -10 3 1 16 10 12 10 20 1 34 -6 11 -9 27 -5 37 5 15 4 16 -8
5 -10 -10 -13 -36 -11 -102 3 -95 -3 -116 -46 -162 -20 -22 -35 -28 -68 -28
-80 0 -130 74 -118 174 4 35 3 56 -5 60 -11 7 -15 83 -5 109 3 9 13 13 25 10
14 -4 19 -14 19 -39 0 -25 4 -34 16 -34 11 0 14 -5 10 -16 -3 -9 -6 -18 -6
-20 0 -3 -4 -2 -10 1 -14 9 -12 -16 5 -65 25 -71 64 -87 110 -47 41 35 45 114
10 200 -5 12 -2 17 9 17 9 0 16 -6 15 -12 -5 -23 12 -78 23 -78 10 0 8 16 -8
54 -5 14 -4 17 4 12 7 -4 12 -15 12 -24 0 -13 2 -14 9 -3 6 9 2 20 -11 33 -23
23 -16 38 19 38 20 0 23 -3 15 -13z"/>
</g>
</svg>
